<svg fill="#000000" height="64px" width="64px" version="1.1" id="Layer_1" xmlns="http://www.w3.org/2000/svg" xmlns:xlink="http://www.w3.org/1999/xlink" viewBox="0 0 512.303 512.303" xml:space="preserve">

<g id="SVGRepo_bgCarrier" stroke-width="0"/>

<g id="SVGRepo_tracerCarrier" stroke-linecap="round" stroke-linejoin="round"/>

<g id="SVGRepo_iconCarrier"> <g transform="translate(-1)"> <g> <path d="M505.66,261.797v-1.839c-0.421-6.182-4.922-12.479-14.921-17.473c-13.693-6.84-36.548-10.738-70.993-10.738 c-0.932,0.045-1.62,0.084-2.624,0.124c-9.196,0.369-19.831-0.053-29.755-1.856c-15.239-2.769-24.541-8.152-26.457-15.553 c-0.637-2.461-2.338-4.509-4.639-5.588c-0.693-0.325-1.682-0.722-2.912-1.104c-2.202-0.685-4.462-1.096-6.803-1.067 c-2.716,0.035-5.24,0.695-7.393,1.942l-6.881-5.162c-0.608-1.571-1.423-3.302-2.486-5.073c-0.76-1.265-1.595-2.418-2.487-3.47 c-0.014-0.017-0.03-0.033-0.044-0.05c-5.531-6.493-13.439-8.734-21.971-4.329l-4.557-3.039c-0.462-1.192-1.064-2.453-1.838-3.74 c-4.324-7.193-11.837-10.651-20.842-8.02c-1.329-0.715-2.828-1.617-4.302-2.667c-1.809-1.289-3.241-2.592-4.173-3.785 c-0.453-1.196-1.093-2.523-1.985-3.896c-4.388-6.755-12.064-9.258-19.967-4.805c-0.625-0.154-1.42-0.425-2.374-0.869 c-3.676-1.709-7.714-5.222-11.922-11.199c-7.879-11.2-23.911-19.828-37.224-19.777c-17.283,0.066-26.176,13.373-22.329,34.482 c-1.363,1.421-3.424,3.184-6.287,5.03c-10.503,6.773-25.752,10.242-46.894,8.254c-0.498-0.074-2.165-0.377-4.369-0.919 c-3.696-0.908-7.382-2.143-10.75-3.72c-4.638-2.173-8.214-4.795-10.404-7.742c-6.458-8.682-21.283-14.263-35.121-14.419 c-17.097-0.192-29.765,8.318-27.543,24.605c1.155,8.49,0.718,13.373-0.215,15.417c-0.769,0.51-1.455,1.146-2.027,1.885 c-2.701,3.488-6.534,9.567-10.322,17.81c-9.453,20.566-13.077,43.143-7.49,66.389c-1.039,0.962-2.118,2.068-3.197,3.338 c-8.604,10.118-10.581,22.903-2.39,36.193c-0.301,0.515-0.604,1.055-0.906,1.617c-4.82,8.97-6.558,18.574-2.904,28.034 c6.337,16.406,27.112,26.706,64.508,30.489c2.323,0.235,4.64-0.492,6.413-2.011c0.848-0.727,2.605-2.007,4.906-3.298 c4.06-2.277,7.963-3.439,11.034-3.12c3.872,0.403,7.143,3.259,9.983,10.83c1.398,3.727,5.187,5.992,9.131,5.459 c1.025-0.138,2.895-0.411,5.489-0.822c4.294-0.68,9.072-1.506,14.215-2.481c14.709-2.789,29.426-6.222,43.217-10.342 c11.33-3.385,21.56-7.101,30.44-11.182c0.764-0.252,3.326-1.07,6.576-1.895c4.114-1.045,8.144-1.77,11.8-2.038 c5.924-0.434,9.863,0.433,11.216,1.921c7.127,7.842,27.145,18.981,44.502,23.905c23.159,6.571,42.165,3.097,50.892-14.055 c1.428-0.049,2.832,0.112,4.066,0.536c2.418,0.83,4.225,2.638,5.532,6.453c0.764,2.228,2.414,4.042,4.561,5.011 c1.55,0.7,4.066,1.654,7.318,2.589c7.763,2.231,15.759,3.169,23.527,2.005c10.851-1.626,19.86-7.262,25.756-17.271l4.541-1.512 c1.286,0.816,2.757,1.677,4.388,2.535c7.19,3.782,14.586,5.902,21.997,5.325c10.632-0.828,19.324-7.193,24.848-18.963l7.853-5.237 l5.984-0.383c0.971-0.062,1.925-0.29,2.819-0.674c5.427-2.328,13.177-6.776,20.973-13.511 C512.744,314.878,520.425,290.409,505.66,261.797z M35.354,216.574c1.874-4.078,3.878-7.729,5.869-10.887 c0.626-0.992,1.165-1.805,1.594-2.428c1.35-1.016,2.625-2.403,3.716-4.182c3.465-5.651,4.511-14.382,2.789-27.045 c-0.469-3.439,2.341-5.327,10.441-5.236c9.009,0.101,18.839,3.802,21.617,7.536c4.085,5.497,9.871,9.74,16.86,13.014 c7.657,3.587,15.154,5.429,20.424,6.137c25.2,2.377,44.276-1.964,58.079-10.865c7.113-4.587,11.464-9.398,13.582-13.043 c1.114-1.916,1.438-4.191,0.904-6.342c-3.383-13.638-1.171-17.38,4.946-17.404c7.625-0.029,18.471,5.808,23.201,12.532 c6.523,9.265,13.366,14.814,19.829,17.501l-19.38,19.38c-3.333,3.332-3.333,8.735,0,12.068c3.332,3.332,8.735,3.332,12.068,0 l25.733-25.733c1.781,1.946,3.874,3.739,6.226,5.415c3.605,2.568,7.128,4.431,9.82,5.603l-21.336,21.336 c-3.332,3.332-3.332,8.735,0,12.068c3.332,3.333,8.735,3.333,12.068,0l25.314-25.314l10.835,7.226 c0.097,0.065,0.203,0.107,0.302,0.167l-17.497,17.497c-3.332,3.332-3.332,8.735,0,12.068c3.332,3.333,8.735,3.333,12.068,0 l23.249-23.249c0.371,0.414,0.779,0.798,1.23,1.136l15.787,11.844c3.818,2.865,8.873,1.948,11.639-1.301 c6.27,11.103,19.424,17.54,36.984,20.731c11.363,2.065,23.151,2.532,33.491,2.117c1.187-0.048,2.052-0.097,2.548-0.132 c31.423,0.022,51.831,3.503,62.759,8.961c2.914,1.456,4.633,2.793,5.495,3.87c0,0,0,0,0,0l0,0.025 c-0.078,0.137-0.158,0.277-0.242,0.423c-0.02,0.034-0.039,0.069-0.059,0.103c-0.336,0.586-0.715,1.241-1.135,1.957 c-1.922,3.275-3.95,6.548-5.978,9.576c-1.445,2.158-2.834,4.107-4.137,5.791c-1.975,2.552-3.67,4.374-4.782,5.208l-1.291,1.195 c-0.767,0.873-2.656,2.695-5.739,5.161c-5.347,4.279-12.031,8.599-20.128,12.662c-24.08,12.083-53.533,19.057-88.797,19.282 c-1.175,0.008-2.356,0.008-3.544,0c-39.218-0.249-85.484-8.732-139.383-27.632c-2.923-1.185-9.115-3.019-18.312-4.801 c-12.253-2.375-26.231-3.937-41.971-4.474c-0.558-0.019-1.137-0.025-1.699-0.041c-1.705-0.05-3.41-0.1-5.156-0.125 c-0.598-0.009-1.219-0.004-1.822-0.01c-1.735-0.017-3.47-0.035-5.244-0.028c-0.999,0.004-2.032,0.028-3.044,0.04 c-1.41,0.016-2.807,0.024-4.241,0.056c-1.144,0.025-2.323,0.073-3.483,0.108c-1.339,0.041-2.662,0.071-4.022,0.125 c-1.504,0.06-3.047,0.145-4.576,0.221c-1.049,0.052-2.079,0.091-3.14,0.152c-1.795,0.102-3.631,0.231-5.46,0.355 c-0.831,0.057-1.642,0.1-2.48,0.161c-1.855,0.136-3.751,0.3-5.642,0.459c-0.844,0.071-1.668,0.129-2.519,0.205 c-2.062,0.185-4.166,0.397-6.27,0.611c-0.707,0.072-1.397,0.131-2.109,0.206c-2.081,0.219-4.203,0.467-6.323,0.714 c-0.761,0.089-1.503,0.164-2.269,0.256c-3.045,0.077-8.33-0.411-15.787-2.017c-5.48-1.18-11.379-2.828-17.685-4.988 c-0.218-0.075-0.439-0.154-0.658-0.23c-1.213-0.42-2.444-0.864-3.687-1.323c-0.63-0.233-1.265-0.474-1.903-0.717 c-0.807-0.307-1.622-0.624-2.441-0.947c-1.039-0.411-2.09-0.835-3.15-1.272c-0.678-0.279-1.358-0.561-2.044-0.851 c-0.773-0.327-1.549-0.657-2.333-0.998c-1.141-0.497-2.293-1.009-3.456-1.536c-0.313-0.142-0.631-0.289-0.946-0.433 c-0.039-0.21-0.085-0.419-0.14-0.626C24.16,253.891,27.135,234.455,35.354,216.574z M480.284,320.367 c-3.66,3.162-7.615,5.89-11.565,8.158c-1.522,0.873-2.799,1.545-3.749,2.011l-6.679,0.427c-1.497,0.096-2.942,0.584-4.19,1.417 l-11.836,7.893c-1.423,0.949-2.528,2.303-3.171,3.888c-3.083,7.589-6.788,10.51-11.453,10.873 c-3.66,0.285-8.129-0.996-12.727-3.415c-2.624-1.38-4.629-2.748-5.62-3.542c-2.26-1.81-5.283-2.352-8.031-1.437l-11.844,3.942 c-2.201,0.733-4.009,2.33-5.008,4.424c-3.231,6.778-8.056,10.097-14.657,11.086c-4.996,0.749-10.675,0.082-16.284-1.53 c-0.751-0.216-1.44-0.43-2.058-0.633c-3.236-6.607-8.283-11.016-14.528-13.159c-5.217-1.79-10.485-1.816-15.41-0.845 c-1.236,0.244-2.209,0.506-2.875,0.725c-2.512,0.828-4.497,2.774-5.377,5.268c-3.724,10.565-14.563,13.093-32.176,8.095 c-14.506-4.116-31.761-13.717-36.533-18.968c-5.756-6.328-14.444-8.241-25.09-7.461c-4.766,0.349-9.743,1.245-14.753,2.517 c-3.875,0.984-6.977,1.975-8.876,2.672c-8.707,3.971-18.208,7.423-28.825,10.595c-13.168,3.934-27.335,7.239-41.51,9.926 c-4.524,0.858-8.752,1.595-12.59,2.214c-5.091-9.279-12.412-14.483-21.281-15.407c-7.196-0.75-14.296,1.365-21.15,5.209 c-1.734,0.973-3.269,1.948-4.573,2.857c-29.428-3.384-43.659-10.687-46.986-19.299c-1.543-3.994-0.673-8.8,2.018-13.807 c1.103-2.053,2.183-3.565,2.764-4.244c2.686-3.14,2.737-7.752,0.121-10.95c-6.816-8.332-6.334-14.096-1.621-19.639 c0.119-0.14,0.238-0.277,0.357-0.409c7.39,3.382,14.419,6.211,21.082,8.532c0.472,0.165,0.944,0.331,1.412,0.49 c0.207,0.07,0.413,0.139,0.62,0.208c6.584,2.226,12.782,3.95,18.58,5.206c8.933,1.935,15.644,2.529,20.078,2.363 c45.903-5.511,81.239-4.39,107.542,0.708c4.782,0.927,8.807,1.911,12.088,2.882c1.867,0.553,3.017,0.954,3.464,1.134 c56.252,19.73,104.931,28.572,146.525,28.678c39.073,0.1,71.893-7.51,98.866-21.044c15.277-7.666,25.258-15.49,30.477-21.191 c2.35-1.907,4.74-4.529,7.305-7.843c1.562-2.018,3.173-4.277,4.821-6.739C498.363,297.704,492.503,309.811,480.284,320.367z"/> </g> </g> </g>

</svg>